<?xml version="1.0" standalone="no"?>
<!DOCTYPE svg PUBLIC "-//W3C//DTD SVG 20010904//EN"
 "http://www.w3.org/TR/2001/REC-SVG-20010904/DTD/svg10.dtd">
<svg version="1.0" xmlns="http://www.w3.org/2000/svg"
 width="1024.000000pt" height="1024.000000pt" viewBox="0 0 1024.000000 1024.000000"
 preserveAspectRatio="xMidYMid meet">

<g transform="translate(0.000000,1024.000000) scale(0.100000,-0.100000)"
fill="#000000" stroke="none">
<path d="M4344 9569 c-60 -60 -151 -151 -201 -201 -51 -51 -93 -97 -93 -103 0
-6 261 -273 580 -594 530 -533 583 -583 608 -578 15 3 59 17 97 31 39 15 81
31 95 36 125 44 186 82 205 126 17 40 29 43 51 9 26 -40 4 -83 -92 -177 -131
-129 -143 -171 -61 -217 28 -16 58 -35 65 -41 23 -21 75 -30 167 -30 110 0
162 -17 266 -87 115 -79 139 -111 184 -244 26 -79 31 -124 15 -134 -5 -3 -49
-1 -97 5 -48 6 -117 15 -153 19 -36 5 -66 7 -68 6 -2 -2 11 -19 29 -39 49 -57
114 -90 179 -92 30 -2 96 -8 145 -14 50 -6 160 -17 245 -25 204 -17 308 -33
348 -53 72 -35 118 -139 135 -307 13 -140 14 -213 0 -390 -11 -153 -6 -170 78
-253 89 -88 27 -82 788 -82 l676 0 60 -107 c83 -150 235 -460 235 -480 0 -5 9
-26 20 -48 11 -22 20 -47 20 -57 0 -9 4 -19 9 -23 5 -3 15 -22 21 -43 7 -20
20 -59 30 -87 41 -114 62 -185 95 -315 7 -30 18 -71 24 -90 6 -19 15 -62 20
-95 5 -33 16 -103 24 -155 30 -189 30 -506 1 -707 -6 -36 -4 -43 10 -43 15 0
78 57 138 125 14 17 137 140 273 275 219 218 335 343 372 405 28 48 62 123 72
162 7 23 15 45 20 47 14 9 22 90 22 224 -1 194 -24 278 -120 432 -43 69 -771
804 -784 791 -5 -5 -4 -17 2 -29 16 -31 14 -109 -6 -177 -24 -79 -94 -153
-176 -183 -82 -31 -83 -30 -114 98 -8 31 -17 39 -86 72 -42 21 -77 44 -77 51
0 8 -9 26 -20 40 -11 14 -20 31 -20 37 0 19 83 130 132 176 54 52 78 60 109
36 29 -23 120 -48 143 -39 10 4 16 14 14 22 -2 8 -598 610 -1324 1337 -1638
1640 -1479 1484 -1498 1468 -9 -7 -16 -19 -16 -27 0 -7 -10 -27 -21 -43 -28
-37 -22 -101 21 -220 41 -112 49 -146 50 -200 0 -67 -20 -90 -79 -90 -75 0
-136 33 -231 125 -47 45 -118 103 -159 130 -41 26 -124 98 -185 159 -61 62
-156 146 -211 187 -239 181 -239 181 -346 119 -96 -57 -139 -61 -215 -24 -63
32 -219 179 -273 258 -18 25 -38 46 -45 46 -6 0 -61 -50 -122 -111z"/>
<path d="M3318 8285 c-48 -7 -99 -20 -113 -29 -13 -9 -31 -16 -39 -16 -31 0
-170 -128 -426 -390 -146 -150 -270 -280 -277 -290 -12 -16 -10 -17 29 -3 22
7 53 20 69 29 40 20 90 20 122 0 34 -23 79 -100 75 -129 -4 -29 -39 -34 -63
-7 -39 43 -60 22 -110 -114 -14 -37 -25 -75 -25 -83 0 -20 -17 -57 -118 -260
-134 -270 -184 -321 -233 -235 -13 22 -36 48 -52 58 -28 18 -143 145 -180 198
-10 14 -21 26 -25 26 -13 0 -1521 -1517 -1586 -1595 -85 -103 -132 -245 -121
-365 8 -74 46 -202 63 -208 6 -2 14 9 18 25 15 70 37 124 54 133 11 6 45 13
78 16 93 10 93 11 92 -230 -1 -141 2 -211 11 -231 19 -45 589 -609 603 -595 7
7 7 24 -2 55 -39 145 -49 617 -17 815 9 58 21 134 26 169 5 36 14 81 20 100 7
20 18 63 25 96 22 103 45 187 58 214 7 14 16 42 20 61 3 19 15 59 27 87 11 29
29 79 41 110 12 32 30 76 40 99 10 22 18 47 18 56 0 9 7 21 15 28 8 7 15 20
15 29 0 9 24 63 53 121 l52 105 2098 3 c2045 2 2097 3 2097 21 0 35 -133 133
-168 124 -15 -4 -41 21 -118 114 -54 65 -101 120 -104 123 -4 3 -34 37 -68 77
-63 73 -306 338 -414 451 -33 34 -74 70 -90 78 -48 25 -180 33 -678 44 -256 5
-536 12 -622 16 -221 10 -261 0 -343 -80 -74 -73 -106 -135 -135 -266 -20 -86
-21 -117 -18 -326 l4 -232 -65 -4 c-37 -3 -70 -3 -75 0 -5 3 -6 133 -3 301 4
230 9 307 21 345 9 27 16 62 16 77 0 40 54 199 86 250 14 24 41 56 60 70 l33
26 429 6 c236 3 569 3 740 0 302 -6 312 -6 312 13 0 34 -840 864 -875 864 -3
0 -30 11 -58 24 -29 13 -81 27 -117 31 -36 3 -72 8 -80 10 -8 1 -54 -3 -102
-10z m-619 -969 c26 -41 27 -84 2 -133 -103 -211 -225 -448 -240 -468 -4 -5
-29 -58 -55 -116 -54 -124 -71 -224 -42 -249 15 -12 24 -10 69 12 29 14 99 57
157 96 140 94 142 94 138 -76 l-3 -127 -299 -3 c-226 -2 -301 1 -307 10 -9 14
-3 26 73 142 50 77 248 461 248 482 0 4 9 28 21 53 12 25 30 65 40 89 10 23
28 61 38 85 10 23 28 63 40 88 12 25 21 54 21 64 0 28 40 85 60 85 10 0 28
-15 39 -34z m466 -951 c8 -85 1 -118 -23 -113 -14 3 -20 25 -30 112 -16 130
-11 153 22 107 18 -23 26 -51 31 -106z m2077 123 c29 -23 178 -210 178 -224 0
-11 -23 -14 -110 -14 l-110 0 -6 26 c-7 27 3 201 12 216 7 11 17 10 36 -4z"/>
<path d="M5846 7456 c7 -19 38 -22 32 -3 -3 6 -12 13 -21 15 -12 2 -15 -1 -11
-12z"/>
<path d="M6225 7089 c-3 -5 11 -27 32 -50 37 -39 42 -41 126 -52 99 -12 109
-24 55 -69 l-33 -27 175 -176 c232 -234 223 -226 240 -223 13 3 15 26 14 138
0 74 -6 160 -13 190 -23 107 -86 199 -167 244 -38 21 -57 23 -232 29 -110 3
-194 1 -197 -4z"/>
<path d="M2290 5906 c-36 -11 -83 -30 -105 -40 -224 -106 -451 -372 -566 -661
-67 -171 -81 -221 -125 -460 -21 -115 -30 -431 -15 -545 23 -181 41 -291 49
-308 5 -9 12 -35 16 -57 4 -22 13 -56 20 -75 8 -19 26 -69 41 -110 15 -41 31
-82 36 -90 5 -8 14 -25 19 -38 36 -85 330 -404 476 -518 45 -35 85 -64 90 -64
4 0 15 -6 23 -14 21 -18 148 -39 236 -40 187 -1 337 60 524 213 38 31 141 151
179 207 50 76 85 136 118 202 20 42 41 86 46 96 28 56 83 242 103 352 8 39 19
91 26 115 21 71 19 617 -3 689 -9 30 -19 75 -22 100 -7 55 -44 194 -62 237 -8
17 -14 36 -14 43 0 13 -35 91 -87 195 -115 232 -313 441 -503 531 -105 49
-178 64 -310 63 -99 -1 -139 -5 -190 -23z"/>
<path d="M7558 5907 c-48 -12 -92 -27 -99 -34 -16 -16 14 -64 60 -93 47 -30
148 -146 178 -207 14 -26 33 -57 43 -68 19 -20 60 -134 60 -168 0 -10 9 -35
20 -57 17 -33 20 -59 20 -170 0 -93 -4 -141 -15 -167 -8 -19 -15 -45 -15 -56
0 -19 -13 -53 -49 -127 -28 -57 -48 -90 -81 -130 -55 -66 -772 -784 -802 -803
-41 -25 -61 -72 -54 -121 6 -40 12 -57 54 -146 12 -25 26 -56 32 -70 6 -14 21
-43 35 -65 13 -22 30 -51 37 -65 7 -14 18 -32 25 -40 157 -198 201 -242 317
-317 225 -148 476 -166 706 -53 80 39 220 135 220 151 0 5 7 9 15 9 8 0 15 4
15 8 0 5 19 30 43 55 181 199 320 496 372 792 8 44 19 103 24 130 13 66 13
558 0 615 -6 25 -14 74 -19 110 -18 124 -87 336 -158 480 -78 159 -122 224
-232 342 -132 142 -260 222 -424 265 -113 29 -212 29 -328 0z"/>
<path d="M4140 5871 c-52 -21 -105 -79 -114 -123 -18 -89 3 -149 69 -203 39
-32 47 -35 110 -35 63 0 71 2 112 36 45 37 83 105 83 149 0 12 -7 40 -16 61
-43 103 -150 154 -244 115z"/>
<path d="M4955 5874 c-47 -26 -75 -55 -101 -106 -29 -58 -30 -77 -3 -131 29
-57 56 -85 106 -108 55 -25 79 -24 141 7 41 20 59 37 82 78 36 63 38 102 5
166 -45 88 -157 134 -230 94z"/>
<path d="M5761 5867 c-169 -86 -102 -347 90 -347 71 0 149 65 169 139 22 84
-11 155 -100 214 -35 24 -106 21 -159 -6z"/>
<path d="M4203 5223 c-50 -17 -85 -37 -114 -65 -74 -72 -73 -61 -70 -538 1
-234 4 -444 7 -467 8 -53 67 -143 119 -180 l40 -28 712 -3 c795 -3 737 -8 808
69 116 125 276 286 320 321 28 22 65 61 83 86 l32 46 0 290 0 291 -27 53 c-24
48 -86 111 -109 112 -5 1 -27 9 -49 20 -39 19 -69 19 -860 19 l-820 -1 -72
-25z"/>
<path d="M4225 3570 c-38 -12 -76 -52 -100 -107 -17 -40 -17 -45 -1 -86 9 -24
32 -59 52 -78 32 -31 40 -34 98 -34 54 0 67 4 96 29 35 29 70 93 70 127 0 33
-41 105 -74 126 -37 25 -99 35 -141 23z"/>
<path d="M4907 3551 c-40 -26 -76 -89 -77 -131 0 -53 67 -150 104 -150 47 0
206 160 206 208 0 6 -19 30 -41 52 -39 38 -45 40 -103 40 -43 0 -69 -6 -89
-19z"/>
<path d="M2446 2723 c-3 -3 -6 -13 -6 -22 0 -18 564 -584 653 -655 32 -25 64
-46 72 -46 8 0 34 -10 57 -22 39 -21 57 -23 188 -23 l146 0 89 45 c87 43 101
56 400 350 170 168 318 315 328 328 44 53 86 51 -956 51 -530 1 -967 -2 -971
-6z"/>
<path d="M5780 2721 c0 -5 -14 -14 -30 -21 -17 -7 -44 -28 -61 -48 -40 -45
-30 -52 87 -52 72 0 93 -3 98 -15 7 -19 -16 -31 -106 -55 -126 -33 -169 -51
-166 -69 5 -25 39 -26 45 -1 5 20 11 22 52 17 37 -4 51 -12 78 -44 18 -21 48
-54 68 -73 42 -42 44 -66 11 -123 -14 -23 -34 -71 -46 -107 -12 -35 -35 -79
-50 -97 -35 -39 -45 -86 -31 -139 6 -21 13 -138 16 -259 3 -121 7 -245 10
-275 3 -30 -1 -134 -10 -230 -8 -96 -20 -242 -25 -325 -5 -82 -12 -169 -15
-193 -7 -51 1 -82 21 -82 9 0 257 242 553 538 296 295 784 781 1084 1080 350
347 547 550 547 563 0 19 -16 19 -1065 19 -586 -1 -1065 -5 -1065 -9z m1248
-134 c11 -13 -9 -92 -48 -187 -10 -25 -27 -75 -39 -112 -11 -37 -30 -85 -41
-105 -11 -21 -34 -67 -51 -103 -57 -123 -91 -184 -130 -233 -21 -27 -39 -54
-39 -59 0 -17 -155 -204 -225 -271 -90 -87 -141 -113 -190 -97 -19 6 -57 28
-83 48 -26 20 -61 47 -77 60 -17 12 -52 38 -80 57 -250 173 -246 165 -181 298
25 51 46 99 46 105 0 7 14 38 31 70 18 31 38 69 46 85 16 30 48 36 79 12 44
-33 87 -10 155 81 21 29 39 57 39 63 0 5 15 29 33 53 19 24 51 78 71 121 21
42 46 88 57 102 l20 25 299 0 c228 0 300 -3 308 -13z m-1148 -506 c0 -18 -18
-41 -32 -41 -12 0 -9 45 4 58 14 14 28 6 28 -17z m-92 -193 c-4 -27 -28 -36
-28 -10 0 20 8 32 22 32 5 0 8 -10 6 -22z"/>
<path d="M5670 2243 c1 -15 7 -39 15 -53 15 -24 15 -23 13 24 -3 53 -28 80
-28 29z"/>
<path d="M5319 2253 c-1 -7 0 -145 1 -190 0 -20 38 -15 44 5 3 9 1 33 -4 52
-6 19 -10 51 -10 72 0 20 -3 43 -6 52 -6 16 -23 22 -25 9z"/>
<path d="M5492 2207 c-7 -8 -15 -28 -18 -45 -5 -24 -2 -33 10 -38 27 -10 46
14 39 49 -7 41 -17 51 -31 34z"/>
<path d="M5571 2177 c-6 -8 -12 -24 -13 -37 -2 -17 4 -25 25 -32 36 -13 39
-10 26 35 -11 42 -22 52 -38 34z"/>
<path d="M5150 2100 c-25 -25 -26 -50 -2 -50 25 0 42 19 42 47 0 28 -14 29
-40 3z"/>
<path d="M4345 1307 c-66 -68 -133 -137 -149 -155 l-29 -31 0 -141 c1 -117 4
-145 19 -168 30 -46 146 -162 163 -162 36 0 71 171 91 445 5 72 16 163 25 203
16 80 19 132 7 132 -4 0 -62 -55 -127 -123z"/>
</g>
</svg>
